<svg xmlns="http://www.w3.org/2000/svg" width="40" height="40" viewBox="0 0 24.0 24.0">
  <path d="M6,18h12v-4H6V18zM9,16c0,0.6 -0.4,1 -1,1s-1,-0.4 -1,-1s0.4,-1 1,-1S9,15.4 9,16z" fill="#ffffff"/>
  <path d="M6,13h12V9H6V13zM9,11c0,0.6 -0.4,1 -1,1s-1,-0.4 -1,-1s0.4,-1 1,-1S9,10.4 9,11z" fill="#ffffff"/>
  <path d="M3,7v12c0,1.1 0.9,2 2,2h14c1.1,0 2,-0.9 2,-2V7l-9,-3.9L3,7z" fill="none" stroke="#ffffff" stroke-width="2"/>
  <path d="M21,8l-9,-3.9l-9,3.9" fill="none" stroke="#ffffff" stroke-width="2"/>
</svg>
