<svg xmlns="http://www.w3.org/2000/svg" width="40" height="40" viewBox="0 0 24 24">
  <path d="M12,15.2c-0.5,0.1 -1.3,1.4 -1.3,2.1c0,0.3 0.3,0.5 0.5,0.5c0.4,0 0.7,-0.4 0.8,-0.7c0.1,0.3 0.3,0.7 0.8,0.7c0.3,0 0.5,-0.2 0.5,-0.5C13.3,16.6 12.5,15.3 12,15.2z" fill="#333333" fill-rule="evenodd"/>
  <path d="M20,10c0,-3.9 -3.6,-7 -8,-7s-8,3.1 -8,7c0,1.8 1,4 1,4v1c0,1.1 0.9,2 2,2h0c1.1,0 2,0.9 2,2v0c0,1.1 0.9,2 2,2h2c1.1,0 2,-0.9 2,-2v0c0,-1.1 0.9,-2 2,-2h0c1.1,0 2,-0.9 2,-2v-1C19,14 20,11.8 20,10z" fill="none" stroke="#333333" stroke-width="2"/>
  <path d="M15,13m-2,0a2,2 0,1 1,4 0a2,2 0,1 1,-4 0" fill="#333333" fill-rule="evenodd"/>
  <path d="M9,13m-2,0a2,2 0,1 1,4 0a2,2 0,1 1,-4 0" fill="#333333" fill-rule="evenodd"/>
</svg>
