<svg xmlns="http://www.w3.org/2000/svg" width="40" height="40" viewBox="0 0 24.0 24.0">
  <path d="M17.1,6.9L21.3,2.7" fill="none" stroke="#ffffff" stroke-width="2"/>
  <path d="M8.2,5.8L18.2,15.8" fill="none" stroke="#ffffff" stroke-width="2"/>
  <path d="M17.8,14.2l-8,-8l2.6,-2.6c0.8,-0.8 2,-0.8 2.8,0l5.2,5.2c0.8,0.8 0.8,2 0,2.8L17.8,14.2z" fill="#ffffff"/>
  <path d="M7.6,16.4L2.7,21.3" fill="none" stroke="#ffffff" stroke-width="2"/>
  <path d="M15.7,18.3L5.7,8.3" fill="none" stroke="#ffffff" stroke-width="2"/>
  <path d="M6.2,9.8l8,8l-2.6,2.6c-0.8,0.8 -2,0.8 -2.8,0l-5.2,-5.2c-0.8,-0.8 -0.8,-2 0,-2.8L6.2,9.8z" fill="#ffffff"/>
</svg>
