<svg xmlns="http://www.w3.org/2000/svg" width="40" height="40" viewBox="0 0 1920.0 1920.0">
  <path d="M1317,1804c-4,-4 -7,-29 -7,-55 0,-42 4,-51 35,-76 102,-84 329,-84 430,0 34,27 36,32 33,81l-3,51 -241,3c-132,1 -243,-1 -247,-4z" fill="#ffffff" stroke="none"/>
  <path d="M1134,1556c-3,-8 -4,-25 -2,-38 3,-23 5,-23 128,-23l125,0 0,35 0,35 -123,3c-100,2 -123,0 -128,-12z" fill="#ffffff" stroke="none"/>
  <path d="M1469,1531c-35,-35 -39,-44 -39,-91 0,-47 4,-56 39,-91 35,-35 44,-39 91,-39 47,0 56,4 91,39 35,35 39,44 39,91 0,47 -4,56 -39,91 -35,35 -44,39 -91,39 -47,0 -56,-4 -91,-39z" fill="#ffffff" stroke="none"/>
  <path d="M77,1183c-10,-10 -8,-238 2,-265 28,-73 162,-157 321,-200 122,-33 357,-33 478,0 155,42 254,98 305,174 27,41 28,44 25,167l-3,126 -561,3c-308,1 -564,-1 -567,-5z" fill="#ffffff" stroke="none"/>
  <path d="M1356,1178c-3,-7 -7,-67 -10,-133 -6,-151 -22,-199 -92,-275 -30,-32 -54,-63 -54,-70 0,-20 228,-7 324,20 150,40 248,97 299,172 27,41 28,44 25,167l-3,126 -243,3c-189,2 -243,0 -246,-10z" fill="#ffffff" stroke="none"/>
  <path d="M535,531c-50,-23 -109,-84 -130,-133 -21,-52 -19,-153 4,-203 23,-50 84,-109 133,-130 48,-19 148,-19 196,0 49,21 110,80 133,130 23,49 25,151 5,199 -20,49 -85,116 -131,137 -54,25 -157,25 -210,0z" fill="#ffffff" stroke="none"/>
  <path d="M1175,531c-50,-23 -109,-84 -130,-133 -21,-52 -19,-153 4,-203 23,-50 84,-109 133,-130 48,-19 148,-19 196,0 49,21 110,80 133,130 23,49 25,151 5,199 -20,49 -85,116 -131,137 -54,25 -157,25 -210,0z" fill="#ffffff" stroke="none"/>
</svg>
