<svg xmlns="http://www.w3.org/2000/svg" width="40" height="40" viewBox="0 0 24 24">
  <path d="M14.894,13.106c-1.2,-0.625 -2.794,-1.106 -4.894,-1.106c-6.077,0 -8,4 -8,4l0,2l8,0l4.894,-4.894z" fill="#ffffff"/>
  <path d="M 10 2 C 12.2091389993 2 14 3.79086100068 14 6 C 14 8.20913899932 12.2091389993 10 10 10 C 7.79086100068 10 6 8.20913899932 6 6 C 6 3.79086100068 7.79086100068 2 10 2 Z" fill="#ffffff"/>
  <path d="M20.242958,14.25369c0.654796,0.631003 0.832654,1.566976 0.380556,2.003125c-0.452097,0.43567 -1.423361,0.264275 -2.078653,-0.366729s-0.832654,-1.566976 -0.380556,-2.003125c0.452097,-0.43567 1.423361,-0.264275 2.078653,0.366729m1.053734,-1.015446c-1.260904,-1.215089 -3.135368,-1.379303 -4.186121,-0.366729s-0.880347,2.818929 0.380556,4.034017s3.135368,1.379303 4.186121,0.366729s0.880844,-2.818929 -0.380556,-4.034017l0,0z" fill="#ffffff"/>
  <path d="M12.926934,21.303884l0,0c-0.28964,-0.279116 -0.28964,-0.73633 0,-1.015446l4.359011,-4.200625c0.28964,-0.279116 0.764094,-0.279116 1.053734,0l0,0c0.28964,0.279116 0.28964,0.73633 0,1.015446l-4.359011,4.200625c-0.28964,0.279116 -0.764094,0.279116 -1.053734,0z" fill="#ffffff"/>
  <path d="M 2.893233 14.55697 H 5.893233 V 18.55697 H 2.893233 V 14.55697 Z" fill="#ffffff" stroke-width="1"/>
</svg>
