<svg xmlns="http://www.w3.org/2000/svg" width="40" height="40" viewBox="0 0 24.0 24.0">
  <path d="M12,12m-9,0a9,9 0,1 1,18 0a9,9 0,1 1,-18 0" fill="none" stroke="#ffffff" stroke-width="2"/>
  <path d="M11.929,14c-2.996,0 -4.64,1.437 -5.419,2.424C7.795,17.995 9.746,19 11.929,19s4.134,-1.005 5.419,-2.576C16.569,15.437 14.925,14 11.929,14z" fill="#ffffff"/>
  <path d="M12,5.368c-1.823,0 -3,1.452 -3,3.242v1.41l0.6,0.506V8.316l3.6,-1.179l1.2,1.179v2.211l0.6,-0.513V8.611c0,-1.186 -0.461,-2.362 -1.95,-2.653l-0.3,-0.589H12z" fill="#ffffff"/>
  <path d="M9,9.053a3,2.947 0,1 0,6 0a3,2.947 0,1 0,-6 0z" fill="#ffffff"/>
</svg>
