<svg xmlns="http://www.w3.org/2000/svg" width="40" height="40" viewBox="0 0 24.0 24.0">
  <path d="M6,7" fill="none" stroke="#ffffff" stroke-width="2" stroke-linecap="round" stroke-linejoin="round"/>
  <path d="M12,5c0,-1.2 1,-2 2,-2c-2.6,0 -8.8,0 -9.2,0C3.8,3 3,3.9 3,5s0.8,2 1.8,2c0.4,0 6.6,0 9.2,0C13,7 12,6.2 12,5z" fill="none" stroke="#ffffff" stroke-width="2" stroke-linecap="round"/>
  <path d="M6,7c0,0 0,7.5 0,10s1.5,4 3,4h5" fill="none" stroke="#ffffff" stroke-width="2"/>
  <path d="M17,17c0,0 0,-7.5 0,-10s-1.5,-4 -3,-4" fill="none" stroke="#ffffff" stroke-width="2" stroke-linejoin="round"/>
  <path d="M9,11L14,11" fill="none" stroke="#ffffff" stroke-width="2"/>
  <path d="M9,15L14,15" fill="none" stroke="#ffffff" stroke-width="2"/>
  <path d="M19,16h2v8h-2z" fill="#ffffff"/>
  <path d="M16,19h8v2h-8z" fill="#ffffff"/>
</svg>
