<svg xmlns="http://www.w3.org/2000/svg" width="40" height="40" viewBox="0 0 24.0 24.0">
  <path d="M8,1L8,4" fill="none" stroke="#ffffff" stroke-width="2" stroke-linejoin="round"/>
  <path d="M12,1L12,4" fill="none" stroke="#ffffff" stroke-width="2" stroke-linejoin="round"/>
  <path d="M16,1L16,4" fill="none" stroke="#ffffff" stroke-width="2" stroke-linejoin="round"/>
  <path d="M8,20L8,23" fill="none" stroke="#ffffff" stroke-width="2" stroke-linejoin="round"/>
  <path d="M12,20L12,23" fill="none" stroke="#ffffff" stroke-width="2" stroke-linejoin="round"/>
  <path d="M16,20L16,23" fill="none" stroke="#ffffff" stroke-width="2" stroke-linejoin="round"/>
  <path d="M23,8L20,8" fill="none" stroke="#ffffff" stroke-width="2" stroke-linejoin="round"/>
  <path d="M23,12L20,12" fill="none" stroke="#ffffff" stroke-width="2" stroke-linejoin="round"/>
  <path d="M23,16L20,16" fill="none" stroke="#ffffff" stroke-width="2" stroke-linejoin="round"/>
  <path d="M4,8L1,8" fill="none" stroke="#ffffff" stroke-width="2" stroke-linejoin="round"/>
  <path d="M4,12L1,12" fill="none" stroke="#ffffff" stroke-width="2" stroke-linejoin="round"/>
  <path d="M4,16L1,16" fill="none" stroke="#ffffff" stroke-width="2" stroke-linejoin="round"/>
  <path d="M17,5H7C5.9,5 5,5.9 5,7v10c0,1.1 0.9,2 2,2h10c1.1,0 2,-0.9 2,-2V7C19,5.9 18.1,5 17,5zM16,15H8V9h8V15z" fill="#ffffff"/>
</svg>
