<svg xmlns="http://www.w3.org/2000/svg" width="40" height="40" viewBox="0 0 1920.0 1920.0">
  <path d="M389,1747c-18,-12 -44,-38 -56,-56l-23,-34 0,-697 0,-697 23,-34c12,-18 38,-44 56,-56 34,-23 36,-23 385,-23l351,0 243,243 242,242 0,511 0,511 -23,34c-12,18 -38,44 -56,56l-34,23 -537,0 -537,0 -34,-23zM972,1363l218,-218 -72,-72 -73,-73 -217,217 -218,218 0,72 0,73 72,0 73,0 217,-217zM1310,1006c0,-26 -98,-126 -124,-126 -11,0 -37,17 -58,37l-38,37 72,73 72,73 38,-37c21,-20 38,-46 38,-57zM1450,707c0,-1 -90,-92 -200,-202l-200,-200 0,203 0,202 200,0c110,0 200,-1 200,-3z" fill="#ffffff" stroke="none"/>
</svg>
