<svg xmlns="http://www.w3.org/2000/svg" width="40" height="40" viewBox="0 0 24.0 24.0">
  <path d="M21,8H3V6c0,-0.6 0.4,-1 1,-1h16c0.6,0 1,0.4 1,1V8z" fill="#ffffff"/>
  <path d="M6,10h2v2h-2z" fill="#ffffff"/>
  <path d="M10,10h8v2h-8z" fill="#ffffff"/>
  <path d="M6,14h2v2h-2z" fill="#ffffff"/>
  <path d="M4,18V6h16v8.3c0.7,0.2 1.4,0.5 2,0.9V6c0,-1.1 -0.9,-2 -2,-2H4C2.9,4 2,4.9 2,6v12c0,1.1 0.9,2 2,2h6c0,-0.7 0.4,-1.4 0.8,-2H4z" fill="#ffffff"/>
  <path d="M10,14v2h2.8c1.2,-1 3,-2 5.2,-2H10z" fill="#ffffff"/>
  <path d="M18,16c-3.3,0 -6,3.3 -6,4s2.7,4 6,4s6,-3.5 6,-4C24,19.5 21.3,16 18,16zM17.3,22.4c-0.8,-0.2 -1.5,-0.9 -1.7,-1.7c-0.4,-1.7 0.8,-3.2 2.4,-3.2V19c0,0.6 0.4,1 1,1h1.5C20.5,21.6 19,22.8 17.3,22.4z" fill="#ffffff"/>
</svg>
