<svg xmlns="http://www.w3.org/2000/svg" width="40" height="40" viewBox="0 0 24.0 24.0">
  <path d="M0,3h2c1.1,0 2,0.9 2,2v17" fill="none" stroke="#ffffff" stroke-width="2" stroke-linejoin="round"/>
  <path d="M20,17H4V7h16c0.6,0 1,0.4 1,1v8C21,16.6 20.6,17 20,17z" fill="none" stroke="#ffffff" stroke-width="2" stroke-linejoin="round"/>
  <path d="M14,10h4v4h-4z" fill="#ffffff"/>
  <path d="M9,12m-1.5,0a1.5,1.5 0,1 1,3 0a1.5,1.5 0,1 1,-3 0" fill="#ffffff"/>
  <path d="M9,12L13,12" fill="none" stroke="#ffffff" stroke-width="2" stroke-linejoin="round"/>
  <path d="M7,17h12v3h-12z" fill="#ffffff"/>
</svg>
