<svg xmlns="http://www.w3.org/2000/svg" width="40" height="40" viewBox="0 0 24.0 24.0">
  <path d="M9,2h6c1.1,0 2,0.9 2,2v2c0,1.1 -0.9,2 -2,2H9C7.9,8 7,7.1 7,6V4C7,2.9 7.9,2 9,2z" fill="#ffffff"/>
  <path d="M12,12L12,16" fill="none" stroke="#ffffff" stroke-width="2"/>
  <path d="M12,9L12,13" fill="none" stroke="#ffffff" stroke-width="2"/>
  <path d="M19,16v-3c0,-0.6 -0.4,-1 -1,-1H6c-0.6,0 -1,0.4 -1,1v3" fill="none" stroke="#ffffff" stroke-width="2"/>
  <path d="M8,2h8c0.6,0 1,0.4 1,1v4c0,0.6 -0.4,1 -1,1H8C7.4,8 7,7.6 7,7V3C7,2.4 7.4,2 8,2z" fill="#ffffff"/>
  <path d="M2,21v-4c0,-0.6 0.4,-1 1,-1h4c0.6,0 1,0.4 1,1v4c0,0.6 -0.4,1 -1,1H3C2.4,22 2,21.6 2,21z" fill="#ffffff"/>
  <path d="M9,21v-4c0,-0.6 0.4,-1 1,-1h4c0.6,0 1,0.4 1,1v4c0,0.6 -0.4,1 -1,1h-4C9.4,22 9,21.6 9,21z" fill="#ffffff"/>
  <path d="M16,21v-4c0,-0.6 0.4,-1 1,-1h4c0.6,0 1,0.4 1,1v4c0,0.6 -0.4,1 -1,1h-4C16.4,22 16,21.6 16,21z" fill="#ffffff"/>
</svg>
