<svg xmlns="http://www.w3.org/2000/svg" width="40" height="40" viewBox="0 0 24.0 24.0">
  <path d="M17.9,4L17.9,4L20,7.5V14v6H4L4,7.5L6.1,4H17.9M17.9,2H6.1C5.4,2 4.8,2.4 4.4,3L2.2,6.6C2.1,6.8 2,7.2 2,7.5V20c0,1.1 0.9,2 2,2h16c1.1,0 2,-0.9 2,-2v-6V7.5c0,-0.3 -0.1,-0.7 -0.2,-1L19.6,3C19.2,2.4 18.6,2 17.9,2L17.9,2z" fill="#ffffff"/>
  <path d="M3,7L21,7" fill="none" stroke="#ffffff" stroke-width="2"/>
  <path d="M10,11L14,11" fill="none" stroke="#ffffff" stroke-width="2" stroke-linecap="round" stroke-linejoin="round"/>
</svg>
