<svg xmlns="http://www.w3.org/2000/svg" width="40" height="40" viewBox="0 0 24.0 24.0">
  <path d="m3.198,10.699l1.3,1.5c1.6,-1.4 3.7,-2.3 6,-2.3s4.4,0.9 6,2.3l1.3,-1.5c-1.9,-1.7 -4.5,-2.8 -7.3,-2.8s-5.4,1.1 -7.3,2.8z" fill="#ffffff"/>
  <path d="m5.798,13.699l1.3,1.5c0.9,-0.8 2,-1.3 3.3,-1.3s2.4,0.5 3.3,1.3l1.3,-1.5c-1.1,-1.1 -2.7,-1.8 -4.5,-1.8s-3.4,0.7 -4.7,1.8z" fill="#ffffff"/>
  <path d="m8.498,16.699l2,2.2l2,-2.2c-0.5,-0.5 -1.2,-0.8 -2,-0.8s-1.5,0.3 -2,0.8z" fill="#ffffff"/>
  <path d="m0.498,7.699l1.3,1.5c2.4,-2 5.4,-3.3 8.7,-3.3s6.3,1.3 8.6,3.3l1.4,-1.5c-2.7,-2.3 -6.2,-3.8 -10,-3.8s-7.3,1.5 -10,3.8z" fill="#ffffff"/>
  <path d="M15.51,14.21l0,8.894l7.395,-4.447z" fill="#ffffff"/>
</svg>
